<?xml version="1.0" encoding="utf-8"?>
<!-- Generator: Adobe Illustrator 19.2.1, SVG Export Plug-In . SVG Version: 6.00 Build 0)  -->
<!DOCTYPE svg PUBLIC "-//W3C//DTD SVG 1.0//EN" "http://www.w3.org/TR/2001/REC-SVG-20010904/DTD/svg10.dtd">
<svg version="1.0" id="Layer_1" xmlns="http://www.w3.org/2000/svg" xmlns:xlink="http://www.w3.org/1999/xlink" x="0px" y="0px"
	 width="240.2px" height="42.8px" viewBox="0 0 240.2 42.8" style="enable-background:new 0 0 240.2 42.8;" xml:space="preserve">
<g>
	<g>
		<g>
			<path style="fill:#FFFFFF;" d="M120,20.8v-7.8h-7.3v7.8h-6.2V0.3h6.2v7.2h7.3V0.3h6.2v20.4H120z"/>
		</g>
		<path style="fill:#FFFFFF;" d="M50.8,20.8v-15h-5.5V0.3h17.1v5.4H57v15H50.8z"/>
		<path style="fill:#FFFFFF;" d="M65.4,20.8V0.3h15.5v5.4h-9.3v2h9.1v5.4h-9.1v2.2h9.3v5.4H65.4z"/>
		<path style="fill:#FFFFFF;" d="M83.3,10.6C83.3,4.3,88.2,0,94.5,0c5.4,0,8.1,3.1,9.3,5.9l-5.3,2.5c-0.5-1.6-2.1-3-3.9-3
			c-3,0-5,2.3-5,5.1c0,2.8,2,5.1,5,5.1c1.8,0,3.4-1.4,3.9-3l5.3,2.4c-1.2,2.7-3.9,6-9.3,6C88.2,21.1,83.3,16.8,83.3,10.6z"/>
		<path style="fill:#FFFFFF;" d="M155.9,10.6c0-6.3,4.9-10.6,11.2-10.6c6.3,0,11.2,4.3,11.2,10.6s-4.9,10.6-11.2,10.6
			C160.8,21.1,155.9,16.8,155.9,10.6z M172,10.6c0-2.8-1.9-5.1-4.9-5.1c-3,0-4.9,2.3-4.9,5.1c0,2.8,1.9,5.1,4.9,5.1
			C170.1,15.7,172,13.4,172,10.6z"/>
		<path style="fill:#FFFFFF;" d="M192.5,20.8l-2.8-6.4h-2.2v6.4h-6.2V0.3h10.9c4.8,0,7.3,3.2,7.3,7c0,3.5-2.1,5.4-3.7,6.2l3.7,7.2
			H192.5z M193.2,7.3c0-1.1-1-1.6-2-1.6h-3.8v3.2h3.8C192.2,8.9,193.2,8.4,193.2,7.3z"/>
		<path style="fill:#FFFFFF;" d="M202.7,20.8V0.3h6.2v15h7.7v5.4H202.7z"/>
		<path style="fill:#FFFFFF;" d="M219.9,20.8V0.3h9.1c6.4,0,11.2,3.7,11.2,10.2c0,6.5-4.8,10.2-11.2,10.2H219.9z M234,10.5
			c0-2.8-1.6-4.8-4.9-4.8h-3v9.6h2.9C232.1,15.4,234,13.1,234,10.5z"/>
		<g>
			<g id="XMLID_5_">
				<g id="XMLID_7_">
					<path id="XMLID_26_" style="fill:#FFFFFF;" d="M41.6,18.6l-1.1-2.2h0.4l-0.5-1.1h-0.2l-0.8-1.6C40.9,12.9,43,11,43,7.4
						c0-3.9-2.6-7.1-7.4-7.1h-11v15h-0.3v1.1h0.6v2.2h-0.3v2.2h6.2v-2.1h0v-2.3h-0.9v-1h0.6v-0.9H33l0.4,0.9h0l0.4,1h0l1,2.3H35
						l0.9,2.1H43l-1.1-2.2H41.6z M30.8,9V5.8h3.8c1.1,0,2,0.5,2,1.6c0,1.1-1,1.6-2,1.6H30.8z"/>
					<polygon id="XMLID_14_" style="fill:#FFFFFF;" points="20.8,15.3 21.2,15.3 21.2,0.3 14.9,0.3 14.9,7.6 7.5,7.6 7.5,0.3 
						1.3,0.3 1.3,15.3 0.3,15.3 0.3,16.4 2.4,16.4 2.4,18.6 1.3,18.6 1.3,20.8 7.5,20.8 7.5,18.6 8.4,18.6 8.4,16.3 6.7,16.3 
						6.7,15.3 7.5,15.3 7.5,13.1 14.9,13.1 14.9,15.3 14.4,15.3 14.4,16.4 15.6,16.4 15.6,18.6 14.9,18.6 14.9,20.8 21.2,20.8 
						21.2,18.6 21.6,18.6 21.6,16.3 20.8,16.3 					"/>
				</g>
			</g>
		</g>
		<path style="fill:#282828;" d="M143.6,10.6"/>
		<path style="fill:#7EB542;" d="M120,12.9"/>
		<polyline style="fill:#0A9ED7;" points="141.7,10.6 144.8,20.8 144.8,20.8 138.6,20.8 		"/>
		<polyline style="fill:#8FC23F;" points="135.5,10.5 132.4,0.3 132.4,0.3 138.6,0.3 		"/>
		<polyline style="fill:#DD1D44;" points="147.9,10.5 144.9,0.3 144.9,0.3 151,0.3 		"/>
	</g>
	<g>
		<g>
			<path style="fill:#14A7E0;" d="M2.6,36.4l-1,3H0.4l3.2-9.5H5l3.2,9.5H7l-1-3H2.6z M5.7,35.4l-0.9-2.7c-0.2-0.6-0.4-1.2-0.5-1.7h0
				c-0.1,0.6-0.3,1.1-0.5,1.7l-0.9,2.7H5.7z"/>
			<path style="fill:#14A7E0;" d="M17.6,35.2c-0.1-1.3-0.2-2.9-0.1-4.1h0c-0.3,1.1-0.7,2.3-1.2,3.6l-1.7,4.6h-0.9l-1.5-4.5
				c-0.4-1.3-0.8-2.6-1.1-3.7h0c0,1.2-0.1,2.8-0.2,4.2l-0.3,4.1H9.3l0.7-9.5h1.6l1.6,4.6c0.4,1.2,0.7,2.2,1,3.2h0c0.2-1,0.6-2,1-3.2
				l1.7-4.6h1.6l0.6,9.5h-1.2L17.6,35.2z"/>
			<path style="fill:#14A7E0;" d="M20.7,37.8c0.5,0.3,1.3,0.6,2.2,0.6c1.2,0,2-0.7,2-1.6c0-0.9-0.5-1.4-1.8-1.9
				c-1.5-0.5-2.5-1.3-2.5-2.7c0-1.5,1.2-2.6,3.1-2.6c1,0,1.7,0.2,2.1,0.5l-0.3,1c-0.3-0.2-0.9-0.4-1.8-0.4c-1.3,0-1.8,0.8-1.8,1.4
				c0,0.9,0.6,1.3,1.9,1.8c1.6,0.6,2.4,1.4,2.4,2.8c0,1.5-1.1,2.7-3.3,2.7c-0.9,0-1.9-0.3-2.4-0.6L20.7,37.8z"/>
			<path style="fill:#14A7E0;" d="M29.6,30.9h-2.9v-1h7v1h-2.9v8.4h-1.2V30.9z"/>
			<path style="fill:#14A7E0;" d="M39.7,34.9H36v3.4h4.1v1h-5.3v-9.5h5.1v1H36v3h3.7V34.9z"/>
			<path style="fill:#14A7E0;" d="M41.7,30c0.6-0.1,1.5-0.2,2.3-0.2c1.3,0,2.1,0.2,2.7,0.8c0.5,0.4,0.7,1.1,0.7,1.8
				c0,1.2-0.8,2.1-1.8,2.4v0c0.7,0.3,1.2,0.9,1.4,1.9c0.3,1.3,0.5,2.2,0.7,2.6h-1.3c-0.2-0.3-0.4-1.1-0.6-2.3
				c-0.3-1.3-0.8-1.8-1.9-1.8h-1.1v4.1h-1.2V30z M42.9,34.3h1.2c1.3,0,2.1-0.7,2.1-1.8c0-1.2-0.9-1.8-2.2-1.8c-0.6,0-1,0.1-1.2,0.1
				V34.3z"/>
			<path style="fill:#14A7E0;" d="M49.2,30c0.7-0.1,1.6-0.2,2.6-0.2c1.8,0,3,0.4,3.8,1.2c0.8,0.8,1.3,1.9,1.3,3.4
				c0,1.5-0.5,2.8-1.4,3.7c-0.9,0.9-2.3,1.4-4.2,1.4c-0.9,0-1.6,0-2.2-0.1V30z M50.4,38.4c0.3,0.1,0.8,0.1,1.2,0.1c2.6,0,4-1.5,4-4
				c0-2.2-1.2-3.6-3.8-3.6c-0.6,0-1.1,0.1-1.4,0.1V38.4z"/>
			<path style="fill:#14A7E0;" d="M59.9,36.4l-1,3h-1.3l3.2-9.5h1.5l3.2,9.5h-1.3l-1-3H59.9z M63,35.4l-0.9-2.7
				c-0.2-0.6-0.4-1.2-0.5-1.7h0c-0.1,0.6-0.3,1.1-0.5,1.7l-0.9,2.7H63z"/>
			<path style="fill:#14A7E0;" d="M74.8,35.2c-0.1-1.3-0.2-2.9-0.1-4.1h0c-0.3,1.1-0.7,2.3-1.2,3.6l-1.7,4.6h-0.9l-1.5-4.5
				c-0.4-1.3-0.8-2.6-1.1-3.7h0c0,1.2-0.1,2.8-0.2,4.2l-0.3,4.1h-1.2l0.7-9.5h1.6l1.6,4.6c0.4,1.2,0.7,2.2,1,3.2h0
				c0.2-1,0.6-2,1-3.2l1.7-4.6h1.6l0.6,9.5h-1.2L74.8,35.2z"/>
			<path style="fill:#FFFFFF;" d="M80.7,39.3v-0.8l1-0.9c2.3-2.2,3.4-3.4,3.4-4.8c0-0.9-0.4-1.8-1.8-1.8c-0.8,0-1.5,0.4-1.9,0.8
				L80.9,31c0.6-0.5,1.5-0.9,2.6-0.9c2,0,2.8,1.3,2.8,2.7c0,1.7-1.2,3-3.1,4.9l-0.7,0.7v0h4.1v1H80.7z"/>
			<path style="fill:#FFFFFF;" d="M91.7,39.3v-2.5h-4.2V36l4.1-5.8h1.3v5.7h1.3v1h-1.3v2.5H91.7z M91.7,35.9v-3c0-0.5,0-1,0-1.4h0
				c-0.3,0.5-0.5,0.9-0.8,1.3l-2.2,3.1v0H91.7z"/>
			<path style="fill:#FFFFFF;" d="M98.3,34v0.9h-3.5V34H98.3z"/>
			<path style="fill:#FFFFFF;" d="M99.4,39.3v-0.8l1-0.9c2.3-2.2,3.4-3.4,3.4-4.8c0-0.9-0.4-1.8-1.8-1.8c-0.8,0-1.5,0.4-1.9,0.8
				L99.6,31c0.6-0.5,1.5-0.9,2.6-0.9c2,0,2.8,1.3,2.8,2.7c0,1.7-1.2,3-3.1,4.9l-0.7,0.7v0h4.1v1H99.4z"/>
			<path style="fill:#FFFFFF;" d="M112,31.3h-3.5l-0.4,2.3c0.2,0,0.4-0.1,0.7-0.1c0.7,0,1.4,0.2,2,0.5c0.7,0.4,1.3,1.2,1.3,2.3
				c0,1.8-1.4,3.1-3.4,3.1c-1,0-1.8-0.3-2.3-0.6l0.3-0.9c0.4,0.2,1.1,0.5,1.9,0.5c1.2,0,2.2-0.8,2.2-2c0-1.2-0.8-2-2.6-2
				c-0.5,0-0.9,0.1-1.3,0.1l0.6-4.4h4.4V31.3z"/>
			<path style="fill:#FFFFFF;" d="M125.3,34.5c0,3.3-2,5-4.4,5c-2.5,0-4.2-1.9-4.2-4.8c0-3,1.9-5,4.4-5
				C123.6,29.7,125.3,31.7,125.3,34.5z M117.9,34.7c0,2,1.1,3.8,3,3.8c1.9,0,3-1.8,3-3.9c0-1.9-1-3.8-3-3.8
				C118.9,30.7,117.9,32.6,117.9,34.7z"/>
			<path style="fill:#FFFFFF;" d="M133.5,39c-0.4,0.2-1.3,0.4-2.5,0.4c-2.7,0-4.7-1.7-4.7-4.8c0-3,2-5,4.9-5c1.2,0,1.9,0.3,2.2,0.4
				l-0.3,1c-0.5-0.2-1.1-0.4-1.9-0.4c-2.2,0-3.7,1.4-3.7,3.9c0,2.3,1.3,3.8,3.6,3.8c0.7,0,1.5-0.2,2-0.4L133.5,39z"/>
			<path style="fill:#FFFFFF;" d="M137.2,30.9h-2.9v-1h7v1h-2.9v8.4h-1.2V30.9z"/>
			<path style="fill:#FFFFFF;" d="M150.1,34.5c0,3.3-2,5-4.4,5c-2.5,0-4.2-1.9-4.2-4.8c0-3,1.9-5,4.4-5
				C148.4,29.7,150.1,31.7,150.1,34.5z M142.7,34.7c0,2,1.1,3.8,3,3.8c1.9,0,3-1.8,3-3.9c0-1.9-1-3.8-3-3.8
				C143.7,30.7,142.7,32.6,142.7,34.7z"/>
			<path style="fill:#FFFFFF;" d="M151.6,30c0.5-0.1,1.4-0.2,2.2-0.2c1.2,0,2,0.2,2.6,0.7c0.5,0.4,0.8,0.9,0.8,1.7
				c0,0.9-0.6,1.7-1.6,2.1v0c0.9,0.2,1.9,1,1.9,2.4c0,0.8-0.3,1.4-0.8,1.9c-0.7,0.6-1.7,0.9-3.3,0.9c-0.8,0-1.5-0.1-1.9-0.1V30z
				 M152.9,33.9h1.1c1.3,0,2-0.7,2-1.6c0-1.1-0.8-1.5-2.1-1.5c-0.6,0-0.9,0-1.1,0.1V33.9z M152.9,38.4c0.2,0,0.6,0.1,1,0.1
				c1.3,0,2.4-0.5,2.4-1.8c0-1.3-1.1-1.8-2.4-1.8h-1V38.4z"/>
			<path style="fill:#FFFFFF;" d="M164.1,34.9h-3.7v3.4h4.1v1h-5.3v-9.5h5.1v1h-3.9v3h3.7V34.9z"/>
			<path style="fill:#FFFFFF;" d="M166.1,30c0.6-0.1,1.5-0.2,2.3-0.2c1.3,0,2.1,0.2,2.7,0.8c0.5,0.4,0.7,1.1,0.7,1.8
				c0,1.2-0.8,2.1-1.8,2.4v0c0.7,0.3,1.2,0.9,1.4,1.9c0.3,1.3,0.5,2.2,0.7,2.6H171c-0.2-0.3-0.4-1.1-0.6-2.3
				c-0.3-1.3-0.8-1.8-1.9-1.8h-1.1v4.1h-1.2V30z M167.4,34.3h1.2c1.3,0,2.1-0.7,2.1-1.8c0-1.2-0.9-1.8-2.2-1.8c-0.6,0-1,0.1-1.2,0.1
				V34.3z"/>
			<path style="fill:#FFFFFF;" d="M176.2,39.3v-0.8l1-0.9c2.3-2.2,3.4-3.4,3.4-4.8c0-0.9-0.4-1.8-1.8-1.8c-0.8,0-1.5,0.4-1.9,0.8
				l-0.4-0.9c0.6-0.5,1.5-0.9,2.6-0.9c2,0,2.8,1.3,2.8,2.7c0,1.7-1.2,3-3.1,4.9l-0.7,0.7v0h4.1v1H176.2z"/>
			<path style="fill:#FFFFFF;" d="M189.5,34.7c0,3.1-1.2,4.8-3.2,4.8c-1.8,0-3-1.7-3-4.7c0-3.1,1.3-4.7,3.2-4.7
				C188.4,30.1,189.5,31.8,189.5,34.7z M184.5,34.8c0,2.4,0.7,3.7,1.9,3.7c1.3,0,1.9-1.5,1.9-3.8c0-2.2-0.6-3.7-1.9-3.7
				C185.3,31,184.5,32.3,184.5,34.8z"/>
			<path style="fill:#FFFFFF;" d="M193.3,31.4L193.3,31.4l-1.6,0.9l-0.2-0.9l2-1.1h1.1v9.1h-1.2V31.4z"/>
			<path style="fill:#FFFFFF;" d="M203.7,30.2V31l-4,8.3h-1.3l4-8.1v0H198v-1H203.7z"/>
		</g>
	</g>
</g>
<g>
</g>
<g>
</g>
<g>
</g>
<g>
</g>
<g>
</g>
<g>
</g>
</svg>
